# xmcd
#
# Track frame offsets:
#	150
#	14124
#	26344
#	38496
#	48667
#	65554
#	77097
#	92821
#	107295
#	114960
#	131128
#	143949
#	156027
#	167795
#	181947
#	195759
#	208848
#	219866
#	233827
#	247821
#	259498
#	269652
#	284043
#	297902
#
# Disc length: 4167 seconds
#
# Revision: 3
# Processed by: cddbd v1.5.2PL0 Copyright (c) Steve Scherf et al.
# Submitted via: audiograbber 1.83.01
#
DISCID=5e104518
DTITLE=Hermann Lammers Meyer - Stories We Could Tell
DYEAR=2001
DGENRE=Country
TTITLE0=Stories We Could Tell
TTITLE1=Without You
TTITLE2=Faithfull (with Marion Möhring)
TTITLE3=Kleenex Teardrop Tissue
TTITLE4=Sad Songs And Waltzes (with Clay Blaker)
TTITLE5=Mr. Heartache
TTITLE6=A Song For Sarah
TTITLE7=The Last Country Song (with Johnny Bush)
TTITLE8=Robbin' Hearts
TTITLE9=Lonely Little Mansion
TTITLE10=Rose Of The Mountains (with The Callaways)
TTITLE11=Good Songs, Bad Songs
TTITLE12=Hillbilly Fever (with Kitty Wells and Johnny Wright)
TTITLE13=(Take Some) Time Off
TTITLE14=Hell Or Houston
TTITLE15=I Just Don't Understand (with Billy Walker)
TTITLE16=Moonshine Ladies
TTITLE17=You Ought To Hear Me Cry (with Marshall Chapman)
TTITLE18=Austin Bound
TTITLE19=Till The End Of Time (with Norma Jean)
TTITLE20=That Darn Song
TTITLE21=Slow Down
TTITLE22=A Little Bit Of Everything In Texas (with Willie Nelson and Norma Jean)
TTITLE23=The Waltz Of The Wind
EXTD=
EXTT0=
EXTT1=
EXTT2=
EXTT3=
EXTT4=
EXTT5=
EXTT6=
EXTT7=
EXTT8=
EXTT9=
EXTT10=
EXTT11=
EXTT12=
EXTT13=
EXTT14=
EXTT15=
EXTT16=
EXTT17=
EXTT18=
EXTT19=
EXTT20=
EXTT21=
EXTT22=
EXTT23=
PLAYORDER=
